<svg width="80" height="80" viewBox="0 0 80 80" fill="none" xmlns="http://www.w3.org/2000/svg">
<path d="M39.9994 53.3337L53.3327 40.0003L39.9994 26.667L35.3327 31.3337L40.666 36.667H26.666V43.3337H40.666L35.3327 48.667L39.9994 53.3337ZM39.9994 73.3337C35.3882 73.3337 31.0549 72.4581 26.9994 70.707C22.9438 68.9581 19.416 66.5837 16.416 63.5837C13.416 60.5837 11.0416 57.0559 9.29268 53.0003C7.54157 48.9448 6.66602 44.6114 6.66602 40.0003C6.66602 35.3892 7.54157 31.0559 9.29268 27.0003C11.0416 22.9448 13.416 19.417 16.416 16.417C19.416 13.417 22.9438 11.0414 26.9994 9.29033C31.0549 7.54144 35.3882 6.66699 39.9994 6.66699C44.6105 6.66699 48.9438 7.54144 52.9993 9.29033C57.0549 11.0414 60.5827 13.417 63.5827 16.417C66.5827 19.417 68.9571 22.9448 70.706 27.0003C72.4571 31.0559 73.3327 35.3892 73.3327 40.0003C73.3327 44.6114 72.4571 48.9448 70.706 53.0003C68.9571 57.0559 66.5827 60.5837 63.5827 63.5837C60.5827 66.5837 57.0549 68.9581 52.9993 70.707C48.9438 72.4581 44.6105 73.3337 39.9994 73.3337Z" fill="#005506"/>
</svg>
