<svg width="32" height="32" viewBox="0 0 32 32" fill="none" xmlns="http://www.w3.org/2000/svg">
<path d="M16.0022 7.67871C11.4861 7.67871 7.74414 11.3561 7.74414 15.9368C7.74414 20.5174 11.4216 24.1948 16.0022 24.1948C20.5828 24.1948 24.2603 20.4529 24.2603 15.9368C24.2603 11.4206 20.5183 7.67871 16.0022 7.67871ZM16.0022 21.2271C13.099 21.2271 10.7119 18.84 10.7119 15.9368C10.7119 13.0335 13.099 10.6465 16.0022 10.6465C18.9054 10.6465 21.2925 13.0335 21.2925 15.9368C21.2925 18.84 18.9054 21.2271 16.0022 21.2271Z" fill="#005506"/>
<path d="M24.5795 9.3533C25.6125 9.3533 26.45 8.51585 26.45 7.4828C26.45 6.44975 25.6125 5.6123 24.5795 5.6123C23.5464 5.6123 22.709 6.44975 22.709 7.4828C22.709 8.51585 23.5464 9.3533 24.5795 9.3533Z" fill="#005506"/>
<path d="M29.4194 2.64516C27.7419 0.903225 25.3548 0 22.6452 0H9.35484C3.74194 0 0 3.74193 0 9.35484V22.5806C0 25.3548 0.903226 27.7419 2.70968 29.4839C4.45161 31.1613 6.77419 32 9.41936 32H22.5806C25.3548 32 27.6774 31.0968 29.3548 29.4839C31.0968 27.8065 32 25.4194 32 22.6452V9.35484C32 6.64516 31.0968 4.32258 29.4194 2.64516ZM29.1613 22.6452C29.1613 24.6452 28.4516 26.2581 27.2903 27.3548C26.129 28.4516 24.5161 29.0323 22.5806 29.0323H9.41936C7.48387 29.0323 5.87097 28.4516 4.70968 27.3548C3.54839 26.1935 2.96774 24.5806 2.96774 22.5806V9.35484C2.96774 7.41935 3.54839 5.80645 4.70968 4.64516C5.80645 3.54839 7.48387 2.96774 9.41936 2.96774H22.7097C24.6452 2.96774 26.2581 3.54839 27.4194 4.70968C28.5161 5.87097 29.1613 7.48387 29.1613 9.35484V22.6452Z" fill="#005506"/>
</svg>
