<svg width="165" height="86" viewBox="0 0 165 86" fill="none" xmlns="http://www.w3.org/2000/svg">
<path d="M3.00001 40.2481L162.199 40.2481M3 2.88966C9.4736 14.379 48.4149 82.8896 49.24 82.8896C50.0603 82.8896 89.0064 14.379 95.48 2.88965" stroke="#FFDCAC" stroke-width="4.5" stroke-linecap="round"/>
<path d="M111.514 82.8427L111.522 82.8501L111.532 82.857C111.915 83.1472 112.362 83.2892 112.856 83.2892H135.607C136.141 83.2892 136.614 83.1761 136.981 82.9028L136.991 82.895L137.001 82.8866C137.363 82.5789 137.555 82.1762 137.555 81.7039C137.555 81.2342 137.364 80.8388 136.991 80.5568C136.624 80.2492 136.147 80.1186 135.607 80.1186H114.804V49.9205C114.804 49.4195 114.595 49.0004 114.199 48.6937C113.839 48.3579 113.379 48.2035 112.856 48.2035C112.354 48.2035 111.904 48.3655 111.522 48.6866C111.121 48.994 110.909 49.4156 110.909 49.9205V81.5722C110.909 82.0788 111.122 82.5092 111.514 82.8427Z" fill="#FFDCAC" stroke="#FFDCAC" stroke-width="0.8"/>
<path d="M85.6461 81.9322L85.6461 81.9323L85.652 81.9346C87.9518 82.8384 90.3954 83.2892 92.9793 83.2892C95.1673 83.2892 97.2928 83.0285 99.3549 82.5065L99.3585 82.5056C101.48 81.9475 103.344 80.9472 104.946 79.5054C105.139 79.3315 105.298 79.1203 105.354 78.8668C105.393 78.6913 105.411 78.5048 105.411 78.3092V67.4371C105.411 66.9638 105.244 66.5522 104.898 66.2409C104.551 65.9286 104.097 65.7958 103.584 65.7958H94.1682C93.678 65.7958 93.2383 65.9333 92.8733 66.2249C92.5273 66.4979 92.3415 66.8687 92.3415 67.3087C92.3415 67.7641 92.5161 68.1576 92.8544 68.4621L92.863 68.4699L92.8721 68.4771C93.2374 68.7694 93.6775 68.9072 94.1682 68.9072H101.758V77.448C100.605 78.1932 99.3827 78.7664 98.0915 79.1686L98.0894 79.1693C96.5154 79.6693 94.8129 79.921 92.9793 79.921C90.8712 79.921 88.8925 79.5586 87.0398 78.8364C85.182 78.0836 83.5443 77.0539 82.1234 75.7476C80.7344 74.4415 79.6396 72.9284 78.8372 71.2061C78.0381 69.4911 77.6381 67.6655 77.6381 65.725C77.6381 63.8433 78.0374 62.0613 78.8361 60.3745C79.6378 58.6817 80.7478 57.1823 82.1694 55.8749L82.1694 55.875L82.1725 55.8721C83.594 54.537 85.2321 53.4934 87.0898 52.741L87.0898 52.741L87.0945 52.739C88.9463 51.9612 90.9067 51.5717 92.9793 51.5717C94.8172 51.5717 96.524 51.796 98.1018 52.2415C99.6681 52.6838 101.062 53.4011 102.286 54.3932L102.295 54.4003L102.304 54.407C102.465 54.5229 102.611 54.6252 102.742 54.7135L102.771 54.7327L102.802 54.7468L103.182 54.918L103.219 54.9346L103.259 54.9435C103.414 54.9783 103.57 54.996 103.727 54.996C104.252 54.996 104.713 54.8416 105.058 54.4919L105.065 54.4844L105.072 54.4765C105.383 54.127 105.554 53.721 105.554 53.2691C105.554 52.78 105.357 52.3695 104.961 52.0894C103.216 50.7813 101.339 49.8054 99.3309 49.1642C97.3236 48.5231 95.2057 48.2035 92.9793 48.2035C90.3324 48.2035 87.8563 48.6684 85.5548 49.6018C83.2594 50.5041 81.2352 51.7717 79.4857 53.4047L79.4856 53.4048C77.7675 55.0096 76.4209 56.8784 75.448 59.0089C74.4723 61.117 73.9848 63.3571 73.9848 65.725C73.9848 68.1229 74.4888 70.3929 75.4973 72.5302L75.4982 72.5321C76.5032 74.6331 77.8809 76.4997 79.6284 78.1308L79.631 78.1333C81.3788 79.7355 83.3848 81.0018 85.6461 81.9322Z" fill="#FFDCAC" stroke="#FFDCAC" stroke-width="0.8"/>
<path d="M146.464 81.4245L146.464 81.4246L146.473 81.4269C148.12 81.9079 149.917 82.1464 151.859 82.1464C153.559 82.1464 155.115 81.9354 156.522 81.5085L156.522 81.5086L156.53 81.5063C157.934 81.0519 159.146 80.4095 160.16 79.5743C161.207 78.7361 162.004 77.7076 162.545 76.4925C163.117 75.2756 163.4 73.9212 163.4 72.4366C163.4 69.8766 162.494 67.7542 160.68 66.1021C158.895 64.4214 155.996 63.3014 152.057 62.6901L152.057 62.6901C150.108 62.3901 148.525 61.9565 147.296 61.3973C146.064 60.8369 145.189 60.1851 144.635 59.4573C144.108 58.6976 143.847 57.869 143.847 56.9616C143.847 55.2042 144.506 53.8818 145.817 52.9422C147.151 51.9868 149.014 51.4861 151.45 51.4861C152.843 51.4861 154.008 51.6618 154.953 52.0006C155.919 52.347 156.71 52.7814 157.334 53.2977C157.98 53.8325 158.502 54.3745 158.903 54.9223L158.903 54.9224L158.909 54.9298C159.17 55.2697 159.51 55.5097 159.918 55.6449L159.933 55.6497L159.948 55.6534C160.356 55.7548 160.767 55.7371 161.17 55.6036L161.17 55.6036L161.177 55.6014C161.66 55.432 162.018 55.1173 162.154 54.6377C162.31 54.1674 162.249 53.7089 161.967 53.3028C161.39 52.4303 160.584 51.6139 159.558 50.8501C158.521 50.0498 157.316 49.4106 155.948 48.9296C154.567 48.444 153.066 48.2035 151.45 48.2035C149.286 48.2035 147.352 48.5552 145.658 49.2687C143.995 49.9541 142.676 50.9327 141.717 52.2117L141.717 52.2117L141.714 52.2169C140.781 53.5048 140.319 55.0093 140.319 56.7134C140.319 59.0811 141.338 61.0931 143.329 62.7322L143.332 62.7344C145.318 64.3405 148.049 65.3519 151.489 65.7992L151.493 65.7996C154.394 66.1534 156.484 66.9501 157.823 68.1425L157.823 68.1425L157.829 68.1481C159.2 69.3178 159.871 70.7397 159.871 72.4366C159.871 73.8331 159.539 74.9921 158.895 75.9349L158.895 75.9348L158.891 75.9417C158.274 76.8861 157.372 77.6102 156.163 78.1077L156.163 78.1077L156.16 78.109C154.978 78.6075 153.548 78.8638 151.859 78.8638C150.343 78.8638 148.986 78.7017 147.784 78.3821C146.613 78.0353 145.597 77.545 144.731 76.9148C143.891 76.2819 143.215 75.5472 142.697 74.7111C142.471 74.3337 142.146 74.0572 141.736 73.8875C141.319 73.7153 140.89 73.695 140.466 73.8331C139.994 73.9671 139.617 74.2284 139.375 74.6308L139.368 74.644L139.361 74.6577C139.143 75.0934 139.177 75.5499 139.413 75.9807C140.108 77.2441 141.053 78.3465 142.244 79.288L142.244 79.288L142.249 79.2916C143.443 80.2063 144.85 80.9159 146.464 81.4245Z" fill="#FFDCAC" stroke="#FFDCAC" stroke-width="0.8"/>
</svg>
