<svg width="52" height="28" viewBox="0 0 52 28" fill="none" xmlns="http://www.w3.org/2000/svg">
<path d="M1 12.676L50.7561 12.676M1 1C3.02327 4.59087 15.1941 26.0031 15.4519 26.0031C15.7083 26.0031 27.8806 4.59087 29.9038 1" stroke="#005506" stroke-width="2" stroke-linecap="round"/>
<path d="M34.8062 26.1217L34.8127 26.1273L34.8196 26.1325C34.9719 26.2476 35.1493 26.303 35.3392 26.303H42.4499C42.6395 26.303 42.8288 26.2629 42.9837 26.1475L42.9916 26.1417L42.999 26.1354C43.1498 26.0071 43.2336 25.8331 43.2336 25.6325C43.2336 25.4338 43.1506 25.2591 42.9916 25.1371C42.8368 25.009 42.6445 24.962 42.4499 24.962H36.1229V15.6987C36.1229 15.4895 36.0338 15.3099 35.8725 15.182C35.7231 15.0455 35.5362 14.9871 35.3392 14.9871C35.143 14.9871 34.9632 15.051 34.8126 15.1767C34.6471 15.305 34.5555 15.4866 34.5555 15.6987V25.5913C34.5555 25.8048 34.6476 25.9868 34.8062 26.1217Z" fill="#005506" stroke="#005506" stroke-width="0.6"/>
<path d="M26.7617 25.8657L26.7617 25.8657L26.7661 25.8675C27.5063 26.1583 28.2919 26.303 29.1203 26.303C29.8182 26.303 30.4969 26.2198 31.1559 26.053L31.1559 26.053L31.1586 26.0523C31.848 25.8709 32.4557 25.5451 32.9774 25.0754C33.053 25.0074 33.1304 24.9114 33.1588 24.7837C33.1742 24.7145 33.1808 24.6433 33.1808 24.5715V21.1735C33.1808 20.9808 33.111 20.8031 32.9626 20.6695C32.8133 20.5352 32.6249 20.4855 32.4349 20.4855H29.4919C29.3045 20.4855 29.1273 20.5387 28.9784 20.6576C28.8298 20.7749 28.746 20.9407 28.746 21.1333C28.746 21.3251 28.8214 21.4954 28.9642 21.6239L28.9707 21.6297L28.9775 21.6352C29.1266 21.7545 29.3041 21.8079 29.4919 21.8079H31.689V24.2059C31.3653 24.4059 31.0244 24.5614 30.6661 24.673L30.6645 24.6735C30.1913 24.8239 29.6772 24.9003 29.1203 24.9003C28.4823 24.9003 27.8859 24.7908 27.3286 24.5737C26.7674 24.3461 26.2742 24.0358 25.8465 23.6428C25.4288 23.2499 25.1001 22.7953 24.8588 22.2776C24.6201 21.7652 24.5004 21.2199 24.5004 20.6383C24.5004 20.0759 24.6195 19.5446 24.858 19.041C25.0986 18.5328 25.4319 18.0824 25.8601 17.6886L25.8601 17.6886L25.8624 17.6864C26.2906 17.2843 26.7841 16.9697 27.3452 16.7424L27.3452 16.7425L27.3488 16.741C27.9054 16.5072 28.4951 16.3898 29.1203 16.3898C29.6804 16.3898 30.1977 16.4581 30.6738 16.5926C31.1411 16.7245 31.5553 16.9379 31.9191 17.2326L31.9257 17.238L31.9326 17.243C31.984 17.2799 32.0311 17.313 32.0738 17.3418L32.0951 17.3562L32.1185 17.3667L32.2374 17.4202L32.2651 17.4327L32.2947 17.4393C32.3554 17.453 32.4171 17.46 32.4795 17.46C32.6788 17.46 32.8719 17.4004 33.0199 17.2504L33.0255 17.2448L33.0307 17.2389C33.1528 17.1016 33.2254 16.9344 33.2254 16.7453C33.2254 16.5408 33.1405 16.3579 32.9682 16.2352C32.4083 15.8158 31.8049 15.502 31.1587 15.2956C30.5131 15.0895 29.8331 14.9871 29.1203 14.9871C28.2724 14.9871 27.4763 15.1361 26.7349 15.4366C25.998 15.7264 25.3467 16.1341 24.7835 16.6598L24.7834 16.6599C24.2299 17.1769 23.7955 17.7796 23.4819 18.4662C23.1662 19.1485 23.0086 19.8736 23.0086 20.6383C23.0086 21.4132 23.1717 22.1482 23.4981 22.84L23.498 22.84L23.4987 22.8414C23.8226 23.5183 24.2664 24.1194 24.8281 24.6437L24.8301 24.6455C25.392 25.1606 26.0366 25.5673 26.7617 25.8657Z" fill="#005506" stroke="#005506" stroke-width="0.6"/>
<path d="M45.7776 25.7121L45.7776 25.7121L45.7837 25.7139C46.3167 25.8695 46.8949 25.9458 47.5163 25.9458C48.062 25.9458 48.5657 25.8781 49.0246 25.7389L49.0246 25.7389L49.0298 25.7372C49.4864 25.5895 49.8852 25.3792 50.2209 25.1027C50.569 24.824 50.8347 24.481 51.0152 24.0765C51.2058 23.6707 51.2982 23.222 51.2982 22.736C51.2982 21.89 50.9967 21.179 50.392 20.6278C49.7959 20.0672 48.8484 19.7099 47.605 19.5169L47.6046 19.5169C47.0054 19.4246 46.5273 19.2925 46.1625 19.1265C45.796 18.9597 45.5501 18.7726 45.3999 18.5765C45.2567 18.3688 45.1871 18.1455 45.1871 17.8994C45.1871 17.4019 45.3694 17.0436 45.7298 16.7854C46.1068 16.5153 46.6488 16.363 47.3884 16.363C47.8102 16.363 48.1529 16.4163 48.4241 16.5136C48.7112 16.6165 48.9395 16.7432 49.1158 16.8891C49.3089 17.0488 49.4612 17.208 49.5766 17.3654L49.5766 17.3655L49.5808 17.3711C49.6841 17.5053 49.8196 17.6009 49.9802 17.654L49.9911 17.6576L50.0022 17.6604C50.1627 17.7002 50.3246 17.6929 50.4813 17.6411L50.4814 17.6411L50.4862 17.6394C50.677 17.5726 50.8391 17.4391 50.9013 17.2245C50.9652 17.0284 50.9389 16.8297 50.8203 16.6578C50.6269 16.3654 50.3599 16.097 50.0283 15.8498C49.688 15.5875 49.2949 15.3796 48.8522 15.2239C48.3999 15.0649 47.9111 14.9871 47.3884 14.9871C46.6933 14.9871 46.0654 15.1 45.5108 15.3335C44.9666 15.5579 44.5274 15.8816 44.2065 16.3099L44.2064 16.3099L44.2036 16.3138C43.8885 16.7488 43.7344 17.2557 43.7344 17.8218C43.7344 18.6202 44.0814 19.2966 44.7391 19.8381L44.7391 19.8381L44.7411 19.8397C45.3949 20.3685 46.2828 20.6927 47.3782 20.8351L47.3782 20.8351L47.3805 20.8354C48.27 20.9438 48.883 21.1854 49.2638 21.5246L49.2638 21.5246L49.2686 21.5288C49.6605 21.8631 49.8455 22.2598 49.8455 22.736C49.8455 23.1439 49.7489 23.4701 49.5709 23.7307L49.5709 23.7307L49.5675 23.7358C49.3964 23.9977 49.1443 24.2029 48.7949 24.3467L48.7949 24.3467L48.7925 24.3477C48.4497 24.4922 48.0271 24.5698 47.5163 24.5698C47.0558 24.5698 46.6478 24.5207 46.29 24.4258C45.9424 24.3226 45.6445 24.1781 45.3925 23.9951C45.1471 23.8099 44.9514 23.5968 44.8021 23.3557C44.7115 23.2055 44.5808 23.0947 44.4191 23.0278C44.2526 22.959 44.0767 22.9498 43.9043 23.0051C43.7225 23.0574 43.5657 23.163 43.4644 23.3319L43.4585 23.3417L43.4534 23.352C43.3565 23.546 43.3751 23.7497 43.473 23.928C43.7019 24.3446 44.0131 24.7068 44.4027 25.0147L44.4027 25.0147L44.4062 25.0174C44.7976 25.3173 45.2562 25.5478 45.7776 25.7121Z" fill="#005506" stroke="#005506" stroke-width="0.6"/>
</svg>
