<svg width="32" height="32" viewBox="0 0 32 32" fill="none" xmlns="http://www.w3.org/2000/svg">
<g clip-path="url(#clip0_128_270)">
<path d="M15.198 0.00260615C12.6313 0.0372728 7.10862 0.458606 4.01928 3.28927C1.72595 5.56927 0.924615 8.9306 0.831282 13.0933C0.751282 17.2399 0.657949 25.0266 8.16462 27.1479V30.3746C8.16462 30.3746 8.11395 31.6679 8.96728 31.9346C10.0206 32.2679 10.6206 31.2693 11.6206 30.2026L13.4873 28.0959C18.6206 28.5226 22.5539 27.5373 23.0073 27.3906C24.0473 27.0573 29.9153 26.3093 30.8753 18.5213C31.862 10.4799 30.3953 5.41327 27.7553 3.11994L27.742 3.11727C26.942 2.38394 23.742 0.0506061 16.582 0.0239395C16.582 0.0239395 16.054 -0.00939385 15.198 0.00260615ZM15.2873 2.26527C16.014 2.26127 16.4606 2.29194 16.4606 2.29194C22.514 2.30527 25.4086 4.13194 26.0886 4.74527C28.3153 6.65061 29.4593 11.2199 28.622 17.9346C27.822 24.4413 23.062 24.8546 22.182 25.1346C21.8086 25.2546 18.342 26.1079 13.9793 25.8279C13.9793 25.8279 10.7273 29.7493 9.71395 30.7626C9.55395 30.9359 9.36728 30.9893 9.24728 30.9626C9.07395 30.9226 9.02062 30.7093 9.03395 30.4159L9.06062 25.0573C2.69928 23.2973 3.07262 16.6546 3.13928 13.1879C3.21928 9.72127 3.87262 6.87861 5.80595 4.95861C8.41528 2.59861 13.106 2.27861 15.2859 2.26527H15.2873ZM15.7673 5.73194C15.7148 5.73176 15.6628 5.74195 15.6143 5.7619C15.5658 5.78186 15.5217 5.8112 15.4845 5.84823C15.4474 5.88527 15.4179 5.92928 15.3978 5.97773C15.3776 6.02619 15.3673 6.07814 15.3673 6.13061C15.3673 6.23669 15.4094 6.33843 15.4844 6.41345C15.5595 6.48846 15.6612 6.53061 15.7673 6.53061C16.7585 6.51169 17.7437 6.6893 18.666 7.05317C19.5882 7.41704 20.4293 7.95996 21.1406 8.65061C22.594 10.0639 23.302 11.9573 23.3286 14.4373C23.3286 14.4898 23.339 14.5418 23.3591 14.5903C23.3792 14.6389 23.4086 14.683 23.4458 14.7201C23.4829 14.7573 23.527 14.7867 23.5755 14.8068C23.6241 14.8269 23.6761 14.8373 23.7286 14.8373V14.8253C23.8347 14.8253 23.9364 14.7831 24.0115 14.7081C24.0865 14.6331 24.1286 14.5314 24.1286 14.4253C24.1781 13.259 23.9896 12.0948 23.5747 11.0037C23.1598 9.91261 22.5272 8.91737 21.7153 8.07861C20.1286 6.53194 18.126 5.73194 15.766 5.73194H15.7673ZM10.4953 6.65194C10.2117 6.61153 9.92284 6.6679 9.67528 6.81194H9.65928C9.11262 7.13194 8.60862 7.53194 8.12862 8.06527C7.76862 8.49194 7.56728 8.91727 7.51395 9.33061C7.48258 9.57302 7.50534 9.81938 7.58062 10.0519L7.60728 10.0653C8.01825 11.2735 8.55451 12.4353 9.20728 13.5319C10.0534 15.0677 11.093 16.4886 12.3006 17.7599L12.3406 17.8133L12.394 17.8533L12.4339 17.8933L12.4739 17.9333C13.7503 19.1439 15.175 20.1878 16.714 21.0399C18.474 21.9999 19.5433 22.4533 20.1833 22.6399V22.6533C20.37 22.7066 20.5406 22.7333 20.714 22.7333C21.2603 22.6934 21.7775 22.4719 22.1833 22.1039C22.7033 21.6373 23.1166 21.1199 23.4233 20.5733V20.5599C23.7299 19.9866 23.6233 19.4386 23.1833 19.0653C22.2965 18.2895 21.3365 17.6019 20.3166 17.0119C19.6366 16.6386 18.9433 16.8653 18.6633 17.2386L18.0633 17.9973C17.7566 18.3706 17.1966 18.3173 17.1966 18.3173L17.1806 18.3306C13.0206 17.2639 11.914 13.0519 11.914 13.0519C11.914 13.0519 11.8606 12.4786 12.2473 12.1853L12.9939 11.5853C13.354 11.2919 13.6073 10.5986 13.2206 9.91861C12.6315 8.89825 11.9438 7.93811 11.1673 7.05194C10.9984 6.84247 10.7599 6.70054 10.4953 6.65194ZM16.4593 7.83861C16.3532 7.83896 16.2516 7.88144 16.1768 7.95671C16.1021 8.03197 16.0603 8.13385 16.0606 8.23994C16.061 8.34603 16.1035 8.44763 16.1787 8.52239C16.254 8.59716 16.3559 8.63896 16.462 8.63861C17.7963 8.66177 19.067 9.21319 19.9953 10.1719C20.4141 10.634 20.7361 11.1752 20.9422 11.7638C21.1483 12.3523 21.2344 12.9762 21.1953 13.5986C21.1956 13.7045 21.2379 13.8059 21.3129 13.8806C21.3879 13.9553 21.4894 13.9973 21.5953 13.9973L21.6086 14.0133C21.6613 14.0133 21.7134 14.0029 21.762 13.9827C21.8106 13.9625 21.8548 13.9329 21.8919 13.8956C21.9291 13.8584 21.9585 13.8141 21.9786 13.7654C21.9986 13.7167 22.0088 13.6646 22.0086 13.6119C22.0486 12.0253 21.5553 10.6919 20.582 9.62527C19.6086 8.55861 18.2486 7.95861 16.5153 7.83861C16.4966 7.8373 16.4779 7.8373 16.4593 7.83861ZM17.1126 9.99727C17.0591 9.9957 17.0058 10.0047 16.9558 10.0237C16.9058 10.0427 16.86 10.0714 16.8211 10.1081C16.7821 10.1448 16.7508 10.1888 16.7289 10.2376C16.707 10.2865 16.6949 10.3391 16.6933 10.3926C16.6917 10.4461 16.7007 10.4994 16.7197 10.5494C16.7387 10.5994 16.7674 10.6452 16.8041 10.6841C16.8408 10.7231 16.8848 10.7544 16.9337 10.7763C16.9825 10.7983 17.0351 10.8104 17.0886 10.8119C18.4086 10.8786 19.0486 11.5453 19.1286 12.9186C19.1321 13.0224 19.1757 13.1207 19.2504 13.1929C19.325 13.265 19.4248 13.3053 19.5286 13.3053H19.542C19.5957 13.3036 19.6485 13.2911 19.6973 13.2686C19.7461 13.246 19.7898 13.2139 19.8259 13.1741C19.862 13.1342 19.8897 13.0876 19.9073 13.0368C19.925 12.986 19.9322 12.9322 19.9286 12.8786C19.8353 11.0919 18.8619 10.0906 17.1286 9.99727C17.1233 9.99717 17.118 9.99717 17.1126 9.99727Z" fill="#005506"/>
</g>
<defs>
<clipPath id="clip0_128_270">
<rect width="32" height="32" fill="white"/>
</clipPath>
</defs>
</svg>
